<svg xmlns="http://www.w3.org/2000/svg" viewBox="0 0 111.8 40">
  <path d="M2.9 31.9v-2.8c1.5.6 3.2.9 5.2.9 1.5 0 2.2-.5 2.2-1.4 0-.9-.5-1.4-1.5-1.4H6.3c-2.8 0-4.1-1.4-4.1-4.1 0-2.8 2-4.3 6-4.3 1.7 0 3.3.3 4.8.8v2.8c-1.5-.6-3.1-.9-4.9-.9-1.8 0-2.8.5-2.8 1.4 0 .9.5 1.4 1.6 1.4h2.2c3 0 4.5 1.4 4.5 4.1 0 2.8-1.9 4.3-5.8 4.3-1.7 0-3.4-.3-4.9-.8zM21.8 19c4.1 0 6.2 2.1 6.2 6.3 0 .6 0 1.1-.1 1.7h-9c0 1.9 1.4 2.9 4.2 2.9 1.4 0 2.7-.1 4.1-.4v2.7c-1.2.3-2.6.4-4.4.4-4.9 0-7.4-2.3-7.4-6.9 0-4.5 2.2-6.7 6.4-6.7zm-2.9 5.6h5.8v-.1c0-1.9-.9-2.8-2.8-2.8s-2.9 1-3 2.9zm11.6-5c1.8-.4 3.7-.6 5.7-.6 4.6 0 6.9 2.1 6.9 6.4 0 4.7-2.1 7.1-6.4 7.1-.9 0-1.8-.2-2.8-.6v5.5h-3.4V19.6zM34 29c.9.5 1.8.7 2.7.7 2 0 3.1-1.4 3.1-4.3 0-2.4-1.1-3.7-3.4-3.7-1 0-1.8.1-2.4.2V29zm23.9-10v12.5s-.7 1.1-2.7 1.1h-5.4c-2.8 0-4.2-1.6-4.2-4.9V19H49v8.5c0 1.5.7 2.2 2 2.2 1.1 0 2.2.2 3.4-.7V19h3.5zm6.7-4.9v18.5h-3.4V14.1h3.4zm3.2 17.8v-2.8c1.5.6 3.2.9 5.2.9 1.5 0 2.2-.5 2.2-1.4 0-.9-.5-1.4-1.5-1.4h-2.5c-2.8 0-4.1-1.4-4.1-4.1 0-2.8 2-4.3 6-4.3 1.7 0 3.3.3 4.8.8v2.8c-1.5-.6-3.1-.9-4.9-.9-1.8 0-2.8.5-2.8 1.4 0 .9.5 1.4 1.6 1.4H74c3 0 4.5 1.4 4.5 4.1 0 2.8-1.9 4.3-5.8 4.3-1.7 0-3.4-.3-4.9-.8zm12.6-3.6c0-2.7 2-4 5.9-4 .9 0 1.8.1 2.8.3v-1c0-1.2-.9-1.8-2.6-1.8-1.5 0-3.1.2-4.9.6v-2.7c1.8-.4 3.4-.6 4.9-.6 4 0 6 1.5 6 4.5v8.5s-.7.3-1.1.4c-.4.1-2.1.2-2.1.2h-3.9c-3.4-.1-5-1.5-5-4.4zm5.9-1.7c-1.6 0-2.5.6-2.5 1.7 0 1.2.7 1.8 2.1 1.8 1.1 0 2 .1 3.2-.3v-2.9c-.9-.2-1.9-.3-2.8-.3zm18-11.4l-4.3-4.4h5.1c3.5.1 6.4 4.1 3.1 7.3-1.9 1.9-3.2 3.2-5.1 5-2.2 2.2-5.6-1.2-3.4-3.4 1.7-1.7 2.8-2.8 4.6-4.5zM96.1 3.3c-2 1.9-3.3 3.2-5.2 5.2-2.9 2.9-.3 8 3.9 7.7h4.1l-4.2-4.7c1.8-1.8 3-2.9 4.8-4.7 2.1-2.4-1.2-5.8-3.4-3.5z" fill="#FFF"/>
</svg>
