<?xml version="1.0" encoding="utf-8"?>
<!-- Generator: Adobe Illustrator 19.0.0, SVG Export Plug-In . SVG Version: 6.00 Build 0)  -->
<svg version="1.1" id="Layer_1" xmlns="http://www.w3.org/2000/svg" xmlns:xlink="http://www.w3.org/1999/xlink" x="0px" y="0px"
	 viewBox="0 0 111.8 40" enable-background="new 0 0 111.8 40" xml:space="preserve">
<g id="XMLID_16_">
	<g id="XMLID_20_">
		<path id="XMLID_36_" fill="#FFFFFF" d="M2.9,31.9v-2.8C4.4,29.7,6.1,30,8.1,30c1.5,0,2.2-0.5,2.2-1.4c0-0.9-0.5-1.4-1.5-1.4H6.3
			c-2.8,0-4.1-1.4-4.1-4.1c0-2.8,2-4.3,6-4.3c1.7,0,3.3,0.3,4.8,0.8v2.8c-1.5-0.6-3.1-0.9-4.9-0.9c-1.8,0-2.8,0.5-2.8,1.4
			c0,0.9,0.5,1.4,1.6,1.4h2.2c3,0,4.5,1.4,4.5,4.1c0,2.8-1.9,4.3-5.8,4.3C6.1,32.7,4.4,32.4,2.9,31.9z"/>
		<path id="XMLID_33_" fill="#FFFFFF" d="M21.8,19c4.1,0,6.2,2.1,6.2,6.3c0,0.6,0,1.1-0.1,1.7h-9c0,1.9,1.4,2.9,4.2,2.9
			c1.4,0,2.7-0.1,4.1-0.4v2.7c-1.2,0.3-2.6,0.4-4.4,0.4c-4.9,0-7.4-2.3-7.4-6.9C15.4,21.2,17.6,19,21.8,19z M18.9,24.6h5.8v-0.1
			c0-1.9-0.9-2.8-2.8-2.8C20,21.7,19,22.7,18.9,24.6z"/>
		<path id="XMLID_30_" fill="#FFFFFF" d="M30.5,19.6c1.8-0.4,3.7-0.6,5.7-0.6c4.6,0,6.9,2.1,6.9,6.4c0,4.7-2.1,7.1-6.4,7.1
			c-0.9,0-1.8-0.2-2.8-0.6v5.5h-3.4V19.6z M34,29c0.9,0.5,1.8,0.7,2.7,0.7c2,0,3.1-1.4,3.1-4.3c0-2.4-1.1-3.7-3.4-3.7
			c-1,0-1.8,0.1-2.4,0.2V29z"/>
		<path id="XMLID_28_" fill="#FFFFFF" d="M57.9,19v12.5c0,0-0.7,1.1-2.7,1.1c-0.1,0-0.4,0-0.4,0c-3.5,0-3.2,0-5,0
			c-2.8,0-4.2-1.6-4.2-4.9V19h3.4v8.5c0,1.5,0.7,2.2,2,2.2c1.1,0,2.2,0.2,3.4-0.7V19H57.9z"/>
		<path id="XMLID_26_" fill="#FFFFFF" d="M64.6,14.1v18.5h-3.4V14.1H64.6z"/>
		<path id="XMLID_24_" fill="#FFFFFF" d="M67.8,31.9v-2.8C69.3,29.7,71,30,73,30c1.5,0,2.2-0.5,2.2-1.4c0-0.9-0.5-1.4-1.5-1.4h-2.5
			c-2.8,0-4.1-1.4-4.1-4.1c0-2.8,2-4.3,6-4.3c1.7,0,3.3,0.3,4.8,0.8v2.8c-1.5-0.6-3.1-0.9-4.9-0.9c-1.8,0-2.8,0.5-2.8,1.4
			c0,0.9,0.5,1.4,1.6,1.4h2.2c3,0,4.5,1.4,4.5,4.1c0,2.8-1.9,4.3-5.8,4.3C71,32.7,69.3,32.4,67.8,31.9z"/>
		<path id="XMLID_21_" fill="#FFFFFF" d="M80.4,28.3c0-2.7,2-4,5.9-4c0.9,0,1.8,0.1,2.8,0.3v-1c0-1.2-0.9-1.8-2.6-1.8
			c-1.5,0-3.1,0.2-4.9,0.6v-2.7c1.8-0.4,3.4-0.6,4.9-0.6c4,0,6,1.5,6,4.5v8.5c0,0-0.7,0.3-1.1,0.4c-0.4,0.1-2.1,0.2-2.1,0.2
			c-2.5,0-2.5,0-3.9,0C82,32.6,80.4,31.2,80.4,28.3z M86.3,26.6c-1.6,0-2.5,0.6-2.5,1.7c0,1.2,0.7,1.8,2.1,1.8c1.1,0,2,0.1,3.2-0.3
			v-2.9C88.2,26.7,87.2,26.6,86.3,26.6z"/>
	</g>
	<path id="XMLID_17_" fill="#FFFFFF" d="M104.3,15.2l-4.3-4.4l0.1,0h5c3.5,0.1,6.4,4.1,3.1,7.3c-1.9,1.9-3.2,3.2-5.1,5
		c-2.2,2.2-5.6-1.2-3.4-3.4C101.4,18,102.5,16.9,104.3,15.2z M96.1,3.3c-2,1.9-3.3,3.2-5.2,5.2c-2.9,2.9-0.3,8,3.9,7.7h4h0.1
		l-4.2-4.7c1.8-1.8,3-2.9,4.8-4.7C101.6,4.4,98.3,1,96.1,3.3z"/>
</g>
</svg>
